<?xml version="1.0" encoding="utf-8"?>
<!-- Generator: Adobe Illustrator 19.1.0, SVG Export Plug-In . SVG Version: 6.00 Build 0)  -->
<svg version="1.1" id="Calque_1" xmlns="http://www.w3.org/2000/svg" xmlns:xlink="http://www.w3.org/1999/xlink" x="0px" y="0px"
	 viewBox="0 0 354.7272034 247.9033813" style="enable-background:new 0 0 354.7272034 247.9033813;" xml:space="preserve">
<style type="text/css">
	.st0{fill:#941D26;stroke:#000000;stroke-width:3;stroke-miterlimit:10;}
	.st1{fill:#BC2132;stroke:#000000;stroke-miterlimit:10;}
	.st2{fill:#FFFFFF;}
	.st3{fill:#BC2132;stroke:#000000;stroke-width:3;stroke-miterlimit:10;}
</style>
<path class="st0" d="M340.1855469,187.3865204H15.4675951c-6.5999994,0-12-5.4000092-12-12V14.7711325
	c0-6.6000004,5.4000001-12,12-12h324.7179565c6.6000061,0,12,5.3999996,12,12v160.615387
	C352.1855469,181.9865112,346.785553,187.3865204,340.1855469,187.3865204z"/>
<path class="st0" d="M118.6543121,167.4266815c-6.1426697,0.4223328-12.5090637,1.286911-19.0436096,2.7165985
	c-49.9132652,10.920517-81.3112183,48.6150208-95.7469788,69.259491
	c-0.1590576-22.1900635-0.3181458-44.380127-0.4772034-66.5701904"/>
<path class="st1" d="M19.6742401,212.4964447"/>
<g>
	<path class="st2" d="M256.8454895,102.1339493c-7.4447479-17.7396164-15.0396271-35.4187317-22.2304535-53.2606888
		c-1.8350677-4.5531807-4.5807343-6.5525246-9.2527466-6.8060074c-12.3683929-0.6710625-24.0757446,2.3423538-35.4787598,6.5602913
		c-35.5308685,13.1427383-67.0758362,33.4489861-97.935524,54.9501152
		c-4.5557861,3.1741943-9.1149139,6.3437729-13.7010345,9.4736633c-0.199707,0.1362991-0.6862411-0.1476974-2.0622482-0.4916306
		c1.4245453-1.9241562,2.4174576-3.7191772,3.8214035-5.0946426c28.4895096-27.9115295,58.656395-53.6381264,94.7061539-71.5147095
		c12.8938599-6.3938847,26.4258881-10.9150047,40.8790436-12.2006779c1.7770844-0.1580772,3.5724945-0.2545605,5.353653-0.1980152
		c9.7922058,0.3108749,10.201767,0.698967,13.4398346,10.0447617c7.856369,22.6753311,15.7698669,45.330864,23.6603546,67.9943848
		C257.6452942,101.7718506,257.2453918,101.9529037,256.8454895,102.1339493z"/>
	<path class="st2" d="M76.0714569,127.6545181c0.9357452-1.247406,1.6316833-2.8318329,2.8421326-3.6931763
		c34.7677689-24.7401276,70.8542938-47.1580505,112.4150543-58.6663132
		c11.1338348-3.0829849,23.0587921-3.4554176,34.6705475-4.5340118c2.1485748-0.1995773,5.7379913,1.6048965,6.6297607,3.4610062
		c9.45578,19.6809616,18.5041199,39.5577621,27.634201,59.3946381c0.2182007,0.4740524,0.0840149,1.1102829,0.2045288,3.349762
		c-6.9425354-11.6639709-13.0950623-21.9963379-19.2419128-32.3320694
		c-1.0152283-1.7070465-2.3259888-3.3194809-2.9548798-5.1617813
		c-3.7463226-10.9746399-12.0642853-12.0796967-21.9248962-10.7608185
		c-24.6385345,3.2954788-47.8660736,11.4837799-70.6849365,20.7482605
		c-21.6933136,8.8075027-42.9788895,18.6187744-64.4559708,27.9606018
		c-1.3438721,0.5845413-2.7940826,0.9245987-4.1948242,1.3783951
		C76.6973267,128.417511,76.3843918,128.0360107,76.0714569,127.6545181z"/>
	<path class="st2" d="M260.1932068,142.6341705c-7.3336487-6.8904572-14.9601135-13.5010529-21.9021454-20.7657166
		c-4.9655609-5.1963501-10.6693726-7.7141953-17.521759-6.9788742c-17.5439148,1.8826294-35.3170166,2.8729095-52.5072021,6.5295334
		c-28.9092865,6.1494751-57.4360657,14.0958252-86.1315918,21.2548523c-1.6322861,0.4072266-3.3351669,0.5315552-5.7830505-0.53508
		c1.0998383-1.1094513,2.0024567-2.6238403,3.3281708-3.269455c39.251915-19.1152954,79.3939362-35.6854935,123.2413483-40.8162231
		c26.5553436-3.1073303,26.5891571-2.8481674,41.8263855,18.6317596
		c4.7120819,6.6426239,9.4229584,13.2863617,14.0849152,19.9641266c1.0677185,1.5293732,1.9310303,3.2014313,2.8883972,4.8078308
		C261.2088623,141.8493347,260.7010193,142.241745,260.1932068,142.6341705z"/>
	<path class="st2" d="M260.5984192,158.2518005c-1.8077393-0.5147095-3.7133484-0.8123474-5.4084778-1.576767
		c-24.5973969-11.0921021-50.4800873-11.5729828-76.61586-8.959549
		c-32.1958618,3.2193909-64.3463287,6.8925018-96.5186615,10.3486176c-1.6978455,0.1823883-3.4166031,0.170105-5.8316269-1.1279755
		c1.2761841-1.0474396,2.3945541-2.6434326,3.8514938-3.0625916c43.0464401-12.3845367,86.5335083-22.2265472,131.626709-23.0639343
		c12.3479767-0.2293091,23.4899292,1.9518738,32.7171326,11.006073c4.0838165,4.0072479,9.0702209,7.0852661,13.5567627,10.697052
		c1.4104309,1.1354218,2.5273743,2.6353607,3.778656,3.9684448
		C261.3691711,157.0713806,260.9837952,157.6615906,260.5984192,158.2518005z"/>
</g>
<path class="st3" d="M3.8637273,239.402771"/>
<g>
</g>
<g>
</g>
<g>
</g>
<g>
</g>
<g>
</g>
<g>
</g>
</svg>
