<?xml version="1.0" encoding="utf-8"?>
<!-- Generator: Adobe Illustrator 18.1.1, SVG Export Plug-In . SVG Version: 6.00 Build 0)  -->
<svg version="1.1" id="Base" xmlns="http://www.w3.org/2000/svg" xmlns:xlink="http://www.w3.org/1999/xlink" x="0px" y="0px"
	 width="132.2px" height="11.3px" viewBox="0 0 132.2 11.3" enable-background="new 0 0 132.2 11.3" xml:space="preserve">
<path fill="#EEE809" d="M24.6,11.3c-2.3-2.8-6.5-5.5-8.8-6.6c5.9-0.4,8.9-2.1,8.9-2.1S19.4,0.3,18.6,0c-0.8,0.6-2,1.7-6.9,1.8
	C6.9,1.8,0,0,0,0s0,0,0,0c0,0,0,0,0,0c3.4,1,7.8,2.6,11.8,5.4c4,2.8,5.5,5.9,5.5,5.9H24.6z"/>
<g>
	<path fill="#FFFFFF" d="M37.8,0.1h9.4c3.1,0,4.2,1,4.2,3.5v4.1c0,2.5-1.1,3.5-4.2,3.5h-9.4V0.1z M41,8.7h5.5c1.3,0,1.8-0.4,1.8-1.8
		V4.4c0-1.4-0.5-1.8-1.8-1.8H41V8.7z"/>
	<path fill="#FFFFFF" d="M53.1,0.1h3.1v11.2h-3.1V0.1z"/>
	<path fill="#FFFFFF" d="M73,0.1h9.4c3.1,0,4.2,1,4.2,3.5v4.1c0,2.5-1.1,3.5-4.2,3.5H73V0.1z M76.1,8.7h5.5c1.3,0,1.8-0.4,1.8-1.8
		V4.4c0-1.4-0.5-1.8-1.8-1.8h-5.5V8.7z"/>
	<path fill="#FFFFFF" d="M88.3,3.6C88.3,0.7,90,0,92.7,0h4.9c2.8,0,4.4,0.7,4.4,3.6v4c0,2.9-1.6,3.6-4.4,3.6h-4.9
		c-2.8,0-4.4-0.7-4.4-3.6V3.6z M91.5,6.7c0,1.5,0.3,2,1.8,2h3.9c1.5,0,1.8-0.6,1.8-2V4.6c0-1.2-0.3-2-1.9-2h-3.6
		c-1.6,0-1.9,0.8-1.9,2V6.7z"/>
	<path fill="#FFFFFF" d="M103.9,0.1h9.4c2.4,0,3,1.2,3,3V4c0,1.4-0.3,2.2-1.7,2.5v0c0.9,0.2,1.7,0.6,1.7,2.2v2.5h-3.1v-2
		c0-1.1-0.3-1.4-1.3-1.4H107v3.4h-3.1V0.1z M107,5.3h5.1c0.8,0,1.2-0.3,1.2-1.1V3.7c0-0.9-0.4-1.1-1.4-1.1H107V5.3z"/>
	<path fill="#FFFFFF" d="M68.7,11.3h3.4L66.6,0.1h-4L57,11.3h3.5L61.6,9h6L68.7,11.3z M62.7,6.8l1.9-4l1.9,4H62.7z"/>
	<path fill="#FFFFFF" d="M128.8,11.3h3.4l-5.6-11.2h-4l-5.5,11.2h3.5l1.1-2.3h6L128.8,11.3z M122.7,6.8l1.9-4l1.9,4H122.7z"/>
</g>
</svg>
